# xmcd CD database file
#
# Track frame offsets:
#	150
#	14924
#	131165
#	170078
#
# Disc length: 3413 seconds
#
# Revision: 0
# Processed by: cddbd v1.5PL3 Copyright (c) Steve Scherf et al.
# Submitted via: CDex 1.51
#
DISCID=390d5304
DTITLE=Stevie Ray Vaughan and Buddy Guy - It's still called the Blues
DYEAR=1989
DGENRE=Blues
TTITLE0=It's called the Blues
TTITLE1=Champagne and Reefer
TTITLE2=Mary had a little lamb
TTITLE3=Leave my girl alone
EXTD=YEAR: 1989
EXTT0=
EXTT1=
EXTT2=
EXTT3=
PLAYORDER=
